<svg id="Camada_1" data-name="Camada 1" xmlns="http://www.w3.org/2000/svg" viewBox="0 0 852.84 1696.7"><defs><style>.cls-1{fill:none;stroke:#04d361;stroke-linecap:round;stroke-linejoin:round;stroke-width:3px;}.cls-2{fill:#9871f5;}</style></defs><path class="cls-1" d="M697.15,1656.43a15.46,15.46,0,1,1,15.45-15.49A15.47,15.47,0,0,1,697.15,1656.43Z" transform="translate(-119.55 -111.16)"/><path class="cls-1" d="M686.46,1652.18l-10.93,10.93" transform="translate(-119.55 -111.16)"/><path class="cls-1" d="M740.39,528.84l-16.26,16.3" transform="translate(-119.55 -111.16)"/><path class="cls-1" d="M740.42,545.11,724.1,528.87" transform="translate(-119.55 -111.16)"/><path class="cls-1" d="M358.16,1462.21l-16.26,16.3" transform="translate(-119.55 -111.16)"/><path class="cls-1" d="M358.19,1478.48l-16.32-16.24" transform="translate(-119.55 -111.16)"/><path class="cls-1" d="M213.08,573.6l-23,0" transform="translate(-119.55 -111.16)"/><path class="cls-1" d="M201.59,585.16l-.05-23" transform="translate(-119.55 -111.16)"/><path class="cls-1" d="M592.68,262.17a14,14,0,1,1,14-14A14,14,0,0,1,592.68,262.17Z" transform="translate(-119.55 -111.16)"/><path class="cls-1" d="M956.91,1084.29a14,14,0,1,1,14-14A14,14,0,0,1,956.91,1084.29Z" transform="translate(-119.55 -111.16)"/><path class="cls-1" d="M135.08,1291.13a14,14,0,1,1,14-14A14,14,0,0,1,135.08,1291.13Z" transform="translate(-119.55 -111.16)"/><path class="cls-2" d="M399.22,116.24a5.07,5.07,0,1,0,5.06-5.08A5.06,5.06,0,0,0,399.22,116.24Z" transform="translate(-119.55 -111.16)"/><path class="cls-2" d="M399.29,151.61a5.07,5.07,0,1,0,5.06-5.07A5.06,5.06,0,0,0,399.29,151.61Z" transform="translate(-119.55 -111.16)"/><path class="cls-2" d="M399.36,187a5.08,5.08,0,1,0,5.06-5.08A5.07,5.07,0,0,0,399.36,187Z" transform="translate(-119.55 -111.16)"/><path class="cls-2" d="M399.44,222.33a5.07,5.07,0,1,0,5.06-5.08A5.06,5.06,0,0,0,399.44,222.33Z" transform="translate(-119.55 -111.16)"/><path class="cls-2" d="M399.51,257.67a5.07,5.07,0,1,0,5.06-5.07A5.08,5.08,0,0,0,399.51,257.67Z" transform="translate(-119.55 -111.16)"/><path class="cls-2" d="M399.59,293.05a5.07,5.07,0,1,0,5.05-5.08A5.06,5.06,0,0,0,399.59,293.05Z" transform="translate(-119.55 -111.16)"/><path class="cls-2" d="M363.82,116.31a5.07,5.07,0,1,0,5.06-5.07A5.08,5.08,0,0,0,363.82,116.31Z" transform="translate(-119.55 -111.16)"/><path class="cls-2" d="M363.9,151.68a5.07,5.07,0,1,0,5.06-5.07A5.07,5.07,0,0,0,363.9,151.68Z" transform="translate(-119.55 -111.16)"/><path class="cls-2" d="M364,187A5.07,5.07,0,1,0,369,182,5.06,5.06,0,0,0,364,187Z" transform="translate(-119.55 -111.16)"/><path class="cls-2" d="M364,222.4a5.07,5.07,0,1,0,5.06-5.07A5.08,5.08,0,0,0,364,222.4Z" transform="translate(-119.55 -111.16)"/><path class="cls-2" d="M364.12,257.75a5.07,5.07,0,1,0,5.06-5.08A5.06,5.06,0,0,0,364.12,257.75Z" transform="translate(-119.55 -111.16)"/><path class="cls-2" d="M364.19,293.12a5.07,5.07,0,1,0,5.06-5.07A5.06,5.06,0,0,0,364.19,293.12Z" transform="translate(-119.55 -111.16)"/><path class="cls-2" d="M328.4,116.39a5.07,5.07,0,1,0,5.06-5.08A5.07,5.07,0,0,0,328.4,116.39Z" transform="translate(-119.55 -111.16)"/><path class="cls-2" d="M328.48,151.76a5.07,5.07,0,1,0,5.06-5.08A5.06,5.06,0,0,0,328.48,151.76Z" transform="translate(-119.55 -111.16)"/><path class="cls-2" d="M328.55,187.1a5.07,5.07,0,1,0,5.06-5.07A5.07,5.07,0,0,0,328.55,187.1Z" transform="translate(-119.55 -111.16)"/><path class="cls-2" d="M328.62,222.48a5.07,5.07,0,1,0,5.06-5.08A5.07,5.07,0,0,0,328.62,222.48Z" transform="translate(-119.55 -111.16)"/><path class="cls-2" d="M328.7,257.82a5.07,5.07,0,1,0,5.06-5.07A5.07,5.07,0,0,0,328.7,257.82Z" transform="translate(-119.55 -111.16)"/><path class="cls-2" d="M328.77,293.19a5.07,5.07,0,1,0,5.06-5.07A5.08,5.08,0,0,0,328.77,293.19Z" transform="translate(-119.55 -111.16)"/><path class="cls-2" d="M293,116.46a5.07,5.07,0,1,0,5.06-5.07A5.06,5.06,0,0,0,293,116.46Z" transform="translate(-119.55 -111.16)"/><path class="cls-2" d="M293.08,151.83a5.07,5.07,0,1,0,5.06-5.07A5.08,5.08,0,0,0,293.08,151.83Z" transform="translate(-119.55 -111.16)"/><path class="cls-2" d="M293.15,187.18a5.08,5.08,0,1,0,5.07-5.08A5.07,5.07,0,0,0,293.15,187.18Z" transform="translate(-119.55 -111.16)"/><path class="cls-2" d="M293.23,222.55a5.07,5.07,0,1,0,5.06-5.07A5.06,5.06,0,0,0,293.23,222.55Z" transform="translate(-119.55 -111.16)"/><path class="cls-2" d="M293.3,257.9a5.07,5.07,0,1,0,5.06-5.08A5.07,5.07,0,0,0,293.3,257.9Z" transform="translate(-119.55 -111.16)"/><path class="cls-2" d="M293.38,293.27a5.07,5.07,0,1,0,5.06-5.08A5.06,5.06,0,0,0,293.38,293.27Z" transform="translate(-119.55 -111.16)"/><path class="cls-2" d="M754.9,1282.26a5.07,5.07,0,1,0,5.06-5.07A5.07,5.07,0,0,0,754.9,1282.26Z" transform="translate(-119.55 -111.16)"/><path class="cls-2" d="M755,1317.61a5.07,5.07,0,1,0,5.06-5.07A5.06,5.06,0,0,0,755,1317.61Z" transform="translate(-119.55 -111.16)"/><path class="cls-2" d="M755,1353a5.08,5.08,0,1,0,5.07-5.07A5.09,5.09,0,0,0,755,1353Z" transform="translate(-119.55 -111.16)"/><path class="cls-2" d="M719.48,1282.34a5.07,5.07,0,1,0,5.06-5.08A5.06,5.06,0,0,0,719.48,1282.34Z" transform="translate(-119.55 -111.16)"/><path class="cls-2" d="M719.55,1317.68a5.07,5.07,0,1,0,5.06-5.07A5.08,5.08,0,0,0,719.55,1317.68Z" transform="translate(-119.55 -111.16)"/><path class="cls-2" d="M719.62,1353.06a5.08,5.08,0,1,0,5.06-5.08A5.08,5.08,0,0,0,719.62,1353.06Z" transform="translate(-119.55 -111.16)"/><path class="cls-2" d="M938.46,505.48a5.07,5.07,0,1,0,5.06-5.08A5.07,5.07,0,0,0,938.46,505.48Z" transform="translate(-119.55 -111.16)"/><path class="cls-2" d="M938.54,540.82a5.07,5.07,0,1,0,5.06-5.07A5.06,5.06,0,0,0,938.54,540.82Z" transform="translate(-119.55 -111.16)"/><path class="cls-2" d="M938.61,576.19a5.07,5.07,0,1,0,5.06-5.07A5.06,5.06,0,0,0,938.61,576.19Z" transform="translate(-119.55 -111.16)"/><path class="cls-2" d="M903,505.55a5.07,5.07,0,1,0,5.06-5.08A5.06,5.06,0,0,0,903,505.55Z" transform="translate(-119.55 -111.16)"/><path class="cls-2" d="M903.12,540.89a5.07,5.07,0,1,0,5.06-5.07A5.07,5.07,0,0,0,903.12,540.89Z" transform="translate(-119.55 -111.16)"/><path class="cls-2" d="M903.19,576.27a5.07,5.07,0,1,0,5.06-5.08A5.06,5.06,0,0,0,903.19,576.27Z" transform="translate(-119.55 -111.16)"/><path class="cls-2" d="M402.73,1802.38a5.07,5.07,0,1,0,5.06-5.08A5.08,5.08,0,0,0,402.73,1802.38Z" transform="translate(-119.55 -111.16)"/><path class="cls-2" d="M367.31,1802.45a5.07,5.07,0,1,0,5.06-5.07A5.07,5.07,0,0,0,367.31,1802.45Z" transform="translate(-119.55 -111.16)"/><path class="cls-2" d="M331.92,1802.52a5.07,5.07,0,1,0,5.06-5.07A5.06,5.06,0,0,0,331.92,1802.52Z" transform="translate(-119.55 -111.16)"/><path class="cls-2" d="M296.5,1802.6a5.07,5.07,0,1,0,5.06-5.08A5.07,5.07,0,0,0,296.5,1802.6Z" transform="translate(-119.55 -111.16)"/><path class="cls-2" d="M261.1,1802.67a5.07,5.07,0,1,0,5.06-5.07A5.07,5.07,0,0,0,261.1,1802.67Z" transform="translate(-119.55 -111.16)"/><path class="cls-2" d="M225.68,1802.74a5.07,5.07,0,1,0,5.06-5.07A5.08,5.08,0,0,0,225.68,1802.74Z" transform="translate(-119.55 -111.16)"/><path class="cls-2" d="M190.29,1802.82a5.07,5.07,0,1,0,5.06-5.07A5.06,5.06,0,0,0,190.29,1802.82Z" transform="translate(-119.55 -111.16)"/><path class="cls-2" d="M402.66,1767a5.07,5.07,0,1,0,5.06-5.07A5.06,5.06,0,0,0,402.66,1767Z" transform="translate(-119.55 -111.16)"/><path class="cls-2" d="M367.24,1767.07a5.07,5.07,0,1,0,5.06-5.07A5.06,5.06,0,0,0,367.24,1767.07Z" transform="translate(-119.55 -111.16)"/><path class="cls-2" d="M331.84,1767.15a5.08,5.08,0,1,0,5.06-5.07A5.06,5.06,0,0,0,331.84,1767.15Z" transform="translate(-119.55 -111.16)"/><path class="cls-2" d="M296.42,1767.22a5.07,5.07,0,1,0,5.06-5.07A5.06,5.06,0,0,0,296.42,1767.22Z" transform="translate(-119.55 -111.16)"/><path class="cls-2" d="M261,1767.3a5.07,5.07,0,1,0,5.06-5.08A5.07,5.07,0,0,0,261,1767.3Z" transform="translate(-119.55 -111.16)"/><path class="cls-2" d="M225.61,1767.37a5.07,5.07,0,1,0,5.06-5.07A5.06,5.06,0,0,0,225.61,1767.37Z" transform="translate(-119.55 -111.16)"/><path class="cls-2" d="M190.21,1767.44a5.08,5.08,0,1,0,5.07-5.07A5.08,5.08,0,0,0,190.21,1767.44Z" transform="translate(-119.55 -111.16)"/><path class="cls-2" d="M402.59,1731.66a5.07,5.07,0,1,0,5.05-5.08A5.06,5.06,0,0,0,402.59,1731.66Z" transform="translate(-119.55 -111.16)"/><path class="cls-2" d="M367.16,1731.73a5.07,5.07,0,1,0,5.06-5.07A5.07,5.07,0,0,0,367.16,1731.73Z" transform="translate(-119.55 -111.16)"/><path class="cls-2" d="M331.77,1731.8a5.07,5.07,0,1,0,5.06-5.07A5.08,5.08,0,0,0,331.77,1731.8Z" transform="translate(-119.55 -111.16)"/><path class="cls-2" d="M296.35,1731.88a5.07,5.07,0,1,0,5.06-5.07A5.06,5.06,0,0,0,296.35,1731.88Z" transform="translate(-119.55 -111.16)"/><path class="cls-2" d="M261,1732a5.07,5.07,0,1,0,5.06-5.07A5.06,5.06,0,0,0,261,1732Z" transform="translate(-119.55 -111.16)"/><path class="cls-2" d="M225.53,1732a5.08,5.08,0,1,0,5.07-5.08A5.09,5.09,0,0,0,225.53,1732Z" transform="translate(-119.55 -111.16)"/><path class="cls-2" d="M190.14,1732.1a5.07,5.07,0,1,0,5.06-5.07A5.07,5.07,0,0,0,190.14,1732.1Z" transform="translate(-119.55 -111.16)"/><path class="cls-2" d="M402.51,1696.28a5.07,5.07,0,1,0,5.06-5.07A5.06,5.06,0,0,0,402.51,1696.28Z" transform="translate(-119.55 -111.16)"/><path class="cls-2" d="M367.09,1696.36a5.07,5.07,0,1,0,5.06-5.08A5.07,5.07,0,0,0,367.09,1696.36Z" transform="translate(-119.55 -111.16)"/><path class="cls-2" d="M331.7,1696.43a5.07,5.07,0,1,0,5.06-5.07A5.06,5.06,0,0,0,331.7,1696.43Z" transform="translate(-119.55 -111.16)"/><path class="cls-2" d="M296.27,1696.5a5.08,5.08,0,1,0,5.07-5.07A5.08,5.08,0,0,0,296.27,1696.5Z" transform="translate(-119.55 -111.16)"/><path class="cls-2" d="M260.88,1696.58a5.07,5.07,0,1,0,5.06-5.07A5.06,5.06,0,0,0,260.88,1696.58Z" transform="translate(-119.55 -111.16)"/><path class="cls-2" d="M225.46,1696.65a5.07,5.07,0,1,0,5.06-5.07A5.06,5.06,0,0,0,225.46,1696.65Z" transform="translate(-119.55 -111.16)"/><path class="cls-2" d="M190.07,1696.73a5.07,5.07,0,1,0,5.06-5.08A5.06,5.06,0,0,0,190.07,1696.73Z" transform="translate(-119.55 -111.16)"/></svg>