<?xml version="1.0" encoding="utf-8"?>
<!-- Generator: Adobe Illustrator 24.1.1, SVG Export Plug-In . SVG Version: 6.00 Build 0)  -->
<svg version="1.1" id="Camada_1" xmlns="http://www.w3.org/2000/svg" xmlns:xlink="http://www.w3.org/1999/xlink" x="0px" y="0px"
	 viewBox="0 0 434 127" style="enable-background:new 0 0 434 127;" xml:space="preserve">
<style type="text/css">
	.st0{fill:#8257E5;}
</style>
<path class="st0" d="M72.8,5.4h-52C7,5.4,0,12.1,0,25.4v71.1c0,1.7,0.9,2.8,3,2.8h15.7c1.9,0,3.1-1.1,3.1-2.8v-2.7
	c0-6.6,2.8-10.2,9.7-10.9h41.3c15.2,0,22-6.6,22-20.9V26.3C94.8,11.9,87.9,5.4,72.8,5.4z M73,56c0,7.8-1.8,9.4-11,9.4H40
	c-9.3,0-15.2,3.1-18.3,9.1V30.6c0-6,1.5-7.7,8.9-7.7H62c9.3,0,11,1.6,11,9.4V56z"/>
<path class="st0" d="M144.6,44.7c-11.9,0-17.1,6-17.1,16.2v35.8c0,1.6-0.8,2.5-2.7,2.5h-14.2c-1.9,0-2.8-0.9-2.8-2.5V31.3
	c0-1.6,0.9-2.6,2.8-2.6h11.9c1.8,0,2.7,0.9,2.7,2.6v10.6c2.3-8.7,8.9-13.2,20.5-13.2h4.8c1.7,0,2.7,0.9,2.7,2.6v10.9
	c0,1.7-0.9,2.5-2.7,2.5H144.6z"/>
<path class="st0" d="M237.2,80.1c0,13.3-5.9,19.2-20,19.2h-34.9c-14,0-20-5.9-20-19.2V47.9c0-13.3,6-19.2,20-19.2h34.9
	c14.1,0,20,5.9,20,19.2V80.1z M217.5,53c0-7-1.3-8.3-9.7-8.3h-16c-8.5,0-9.8,1.3-9.8,8.3v22c0,7,1.3,8.3,9.8,8.3h16
	c8.3,0,9.7-1.3,9.7-8.3V53z"/>
<path class="st0" d="M257.1,44.7h-6.7c-1.8,0-2.7-0.8-2.7-2.5V31.3c0-1.6,0.9-2.6,2.7-2.6h6.7V20c0-13.3,7-20,20.8-20h16.5
	c1.9,0,2.7,0.9,2.7,2.5v10.9c0,1.8-0.8,2.5-2.7,2.5h-8.7c-7.4,0-8.9,1.6-8.9,7.7v5.1h17.6c1.9,0,2.7,0.9,2.7,2.6v10.9
	c0,1.7-0.8,2.5-2.7,2.5h-17.6v52.1c0,1.6-0.9,2.5-2.8,2.5h-14.2c-1.9,0-2.7-0.9-2.7-2.5V44.7z"/>
<path class="st0" d="M311.8,44.7h-6.7c-1.7,0-2.7-0.8-2.7-2.5V31.3c0-1.6,0.9-2.6,2.7-2.6h6.7V20c0-13.3,7-20,20.8-20h16.5
	c1.9,0,2.7,0.9,2.7,2.5v10.9c0,1.8-0.8,2.5-2.7,2.5h-8.7c-7.4,0-8.9,1.6-8.9,7.7v5.1h17.6c1.9,0,2.7,0.9,2.7,2.6v10.9
	c0,1.7-0.8,2.5-2.7,2.5h-17.6v52.1c0,1.6-0.9,2.5-2.8,2.5h-14.2c-1.9,0-2.7-0.9-2.7-2.5V44.7z"/>
<path class="st0" d="M411.8,126.7h-29.3c-13.1,0-18.8-5.1-18.8-17.7v-1.3c0-0.4,0-0.7,0.1-1.1c0.1-0.3,0.3-0.7,0.6-0.9
	c0.3-0.3,0.6-0.4,0.9-0.6c0.3-0.1,0.7-0.2,1.1-0.1h13.7c1.9,0,2.8,0.9,2.8,2.7v0.7c0,2.7,1.5,3.8,4.4,3.8h16.9
	c8.1,0,10.1-2,10.1-8.9V82.1c-3.1,6-9,9.1-18.3,9.1h-13.7c-14,0-20.1-5.9-20.1-19.2V31.3c0-0.4,0-0.7,0.2-1c0.1-0.3,0.3-0.6,0.6-0.9
	c0.3-0.2,0.6-0.4,0.9-0.5c0.3-0.1,0.7-0.2,1-0.1h14.4c1.7,0,2.7,0.9,2.7,2.6V67c0,7,1.5,8.3,9.8,8.3H402c8.9,0,12.4-3.6,12.4-11v-33
	c0-1.6,0.9-2.6,2.7-2.6h14.4c0.3,0,0.7,0,1,0.1c0.3,0.1,0.6,0.3,0.9,0.5c0.2,0.2,0.4,0.5,0.5,0.9c0.1,0.3,0.2,0.7,0.1,1v74.1
	C434,119.5,426.5,126.7,411.8,126.7z"/>
</svg>
